<svg width="316" height="66" viewBox="0 0 316 66" fill="none" xmlns="http://www.w3.org/2000/svg">
<g filter="url(#filter0_d_61_2)">
<path d="M276.438 55.3041V55.8041H276.938H311H311.5V55.3041V45.2039V44.7039H311H288.051V33.4238H308.419H308.919V32.9238V23.6955V23.1955H308.419H288.051V13.296H310.427H310.927V12.796V2.6958V2.1958H310.427H276.938H276.438V2.6958V55.3041Z" fill="black" stroke="black"/>
<path d="M271.043 14.471L271.501 14.2223L271.233 13.7745C266.662 6.1405 258.396 1.17859 248.646 1.17859C233.368 1.17859 221.648 13.2971 221.684 29C221.648 44.703 233.368 56.8214 248.646 56.8214C258.396 56.8214 266.662 51.8595 271.233 44.2256L271.501 43.7778L271.043 43.5291L261.792 38.5153L261.377 38.2905L261.129 38.6915C258.491 42.9465 253.987 45.6486 248.646 45.6486C239.995 45.6486 233.334 38.464 233.369 29.0019L233.369 28.9982C233.334 19.5361 239.995 12.3515 248.646 12.3515C253.987 12.3515 258.491 15.0536 261.129 19.3086L261.377 19.7095L261.792 19.4847L271.043 14.471Z" fill="black" stroke="black"/>
<path d="M170.159 55.3041V55.8041H170.659H181.272H181.772V55.3041V20.5977L203.941 55.5718L204.088 55.8041H204.363H216.267H216.767V55.3041V2.6958V2.1958H216.267H205.654H205.154V2.6958V36.9641L183.128 2.42695L182.98 2.1958H182.706H170.659H170.159V2.6958V55.3041Z" fill="black" stroke="black"/>
<path d="M129.461 55.3041V55.8041H129.961H164.024H164.524V55.3041V45.2039V44.7039H164.024H141.074V33.4238H161.442H161.942V32.9238V23.6955V23.1955H161.442H141.074V13.296H163.45H163.95V12.796V2.6958V2.1958H163.45H129.961H129.461V2.6958V55.3041Z" fill="black" stroke="black"/>
<path d="M85.0202 47.6304L84.7108 47.9736L85.0287 48.3091C90.3226 53.8953 97.2666 56.8214 104.754 56.8214C110.483 56.8214 115.383 55.083 118.864 52.0574C122.349 49.0276 124.382 44.7299 124.4 39.6834L124.4 39.6793C124.382 35.5432 123.036 32.1503 120.225 29.4052C117.431 26.6776 113.224 24.6225 107.539 23.068L107.536 23.0673L105.098 22.4134L105.098 22.4133L105.094 22.4122C102.504 21.7425 100.822 21.0717 99.7954 20.2873C99.2906 19.9017 98.9546 19.4959 98.7435 19.0571C98.5322 18.6181 98.4329 18.1185 98.441 17.5261L98.4412 17.5261L98.441 17.5138C98.425 16.0241 99.1291 14.7528 100.395 13.8369C101.67 12.9138 103.523 12.3515 105.758 12.3515C109.61 12.3515 113.181 14.0185 116.515 17.4326L116.891 17.8176L117.247 17.4143L123.988 9.78462L124.295 9.43729L123.972 9.105C119.08 4.07386 112.571 1.17859 105.758 1.17859C94.8346 1.17859 86.7201 8.12804 86.7561 17.5916C86.738 21.424 88.0415 24.6773 90.6532 27.3001C93.2524 29.9103 97.1188 31.8683 102.188 33.1893C102.188 33.1894 102.189 33.1895 102.189 33.1897L104.619 33.8412C104.619 33.8415 104.62 33.8417 104.621 33.842C107.787 34.7301 109.81 35.5632 111.045 36.5207C111.653 36.9925 112.06 37.4874 112.32 38.027C112.58 38.5663 112.707 39.1772 112.715 39.9001C112.698 41.689 111.962 43.1004 110.637 44.0797C109.294 45.0724 107.304 45.6486 104.754 45.6486C100.137 45.6486 96.2123 43.9 92.5666 40.0637L92.1945 39.6722L91.8328 40.0734L85.0202 47.6304Z" fill="black" stroke="black"/>
<path d="M42.3142 47.6304L42.0047 47.9736L42.3226 48.3091C47.6166 53.8953 54.5606 56.8214 62.0476 56.8214C67.7766 56.8214 72.6771 55.083 76.1576 52.0574C79.643 49.0276 81.676 44.7299 81.6944 39.6834L81.6944 39.6793C81.676 35.5432 80.3304 32.1503 77.5189 29.4052C74.7253 26.6776 70.5181 24.6225 64.8327 23.068L64.8304 23.0673L62.3922 22.4134L62.3922 22.4133L62.3878 22.4122C59.7975 21.7425 58.1159 21.0717 57.0893 20.2873C56.5846 19.9017 56.2485 19.4959 56.0374 19.0571C55.8262 18.6181 55.7268 18.1185 55.7349 17.5261L55.7351 17.5261L55.735 17.5138C55.719 16.0241 56.423 14.7528 57.6884 13.8369C58.9639 12.9138 60.8169 12.3515 63.0515 12.3515C66.9041 12.3515 70.4748 14.0185 73.809 17.4326L74.1851 17.8176L74.5414 17.4143L81.2823 9.78462L81.5892 9.43729L81.2661 9.105C76.3739 4.07386 69.8648 1.17859 63.0515 1.17859C52.1285 1.17859 44.0141 8.12804 44.05 17.5916C44.032 21.424 45.3354 24.6773 47.9471 27.3001C50.5463 29.9103 54.4127 31.8683 59.4816 33.1893C59.4822 33.1894 59.4827 33.1895 59.4833 33.1897L61.9125 33.8412C61.9134 33.8415 61.9142 33.8417 61.9151 33.842C65.0808 34.7301 67.1039 35.5632 68.3386 36.5207C68.947 36.9925 69.3541 37.4874 69.6143 38.027C69.8742 38.5663 70.0006 39.1772 70.0094 39.9C69.9916 41.6889 69.2565 43.1003 67.931 44.0797C66.5876 45.0724 64.5976 45.6486 62.0476 45.6486C57.4312 45.6486 53.5063 43.9 49.8605 40.0637L49.4884 39.6722L49.1267 40.0734L42.3142 47.6304Z" fill="black" stroke="black"/>
<path d="M4.5 55.3041V55.8041H5H39.0628H39.5628V55.3041V45.2039V44.7039H39.0628H16.1132V33.4238H36.4812H36.9812V32.9238V23.6955V23.1955H36.4812H16.1132V13.296H38.4891H38.9891V12.796V2.6958V2.1958H38.4891H5H4.5V2.6958V55.3041Z" fill="black" stroke="black"/>
</g>
<defs>
<filter id="filter0_d_61_2" x="0" y="0.678589" width="316" height="64.6429" filterUnits="userSpaceOnUse" color-interpolation-filters="sRGB">
<feFlood flood-opacity="0" result="BackgroundImageFix"/>
<feColorMatrix in="SourceAlpha" type="matrix" values="0 0 0 0 0 0 0 0 0 0 0 0 0 0 0 0 0 0 127 0" result="hardAlpha"/>
<feOffset dy="4"/>
<feGaussianBlur stdDeviation="2"/>
<feComposite in2="hardAlpha" operator="out"/>
<feColorMatrix type="matrix" values="0 0 0 0 0 0 0 0 0 0 0 0 0 0 0 0 0 0 0.25 0"/>
<feBlend mode="normal" in2="BackgroundImageFix" result="effect1_dropShadow_61_2"/>
<feBlend mode="normal" in="SourceGraphic" in2="effect1_dropShadow_61_2" result="shape"/>
</filter>
</defs>
</svg>
